<?xml version="1.0" standalone="no"?><!DOCTYPE svg PUBLIC "-//W3C//DTD SVG 1.1//EN" "http://www.w3.org/Graphics/SVG/1.1/DTD/svg11.dtd"><svg width="100%" height="100%" viewBox="0 0 174 159" version="1.1" xmlns="http://www.w3.org/2000/svg" xmlns:xlink="http://www.w3.org/1999/xlink" xml:space="preserve" style="fill-rule:evenodd;clip-rule:evenodd;stroke-linejoin:round;stroke-miterlimit:1.41421;"><g><g id="Layer2"><path d="M86.249,4.091c-7.592,8.209 -12.541,19.395 -14.719,33.698c-1.963,13.128 -1.632,26.93 0.378,41.225c-3.726,-12.883 -8.886,-21.631 -15.451,-26.327c-6.57,-5.93 -14.011,-10.892 -22.311,-14.898c-6.093,-3.565 -10.314,-9.423 -13.981,-15.963c1.482,10.255 3.135,20.529 5.333,30.861c5.708,21.955 16.226,37.036 29.529,48.139c-8.352,-4.848 -18.233,-6.817 -29.529,-6.122c-7.533,0.408 -15.07,-0.581 -22.611,-2.674c8.401,7.09 15.767,15.344 22.611,24.186c8.556,9.089 18.442,13.462 29.529,13.58c5.819,-0.51 11.66,-1.29 17.539,-2.491c-10.591,3.708 -16.567,13.78 -19.499,28.05c9.291,-8.788 18.497,-14.941 27.594,-17.71c1.948,-0.709 4.23,-5.157 6.018,-9.456c0.262,1.263 1.76,5.776 5.458,9.456c10.46,3.783 19.476,9.92 27.48,17.71c-1.649,-12.504 -7.173,-22.425 -19.144,-28.05c7.249,1.962 14.51,2.675 21.78,2.491c10.07,-0.565 18.4,-5.236 25.173,-13.58c9.072,-11.22 16.779,-19.607 22.651,-24.186c-10.437,2.507 -19.066,3.484 -25.582,2.674c-9.995,-0.232 -19.022,1.357 -26.361,6.122c17.006,-16.288 25.895,-32.31 28.879,-48.139c2.342,-12.926 4.191,-22.405 5.893,-30.861c-3.508,6.133 -8.154,11.534 -14.312,15.963c-8.838,4.775 -16.212,9.741 -22.105,14.898c-7.356,5.826 -12.368,14.789 -15.455,26.327c2.014,-13.764 1.779,-27.503 0,-41.225c-1.75,-13.493 -6.644,-24.751 -14.785,-33.698Z" style="fill:#fff;"/></g></g></svg>